HIERARCHY
ROOT Hips
{
  OFFSET -834.03 94.1132 -237.558
  CHANNELS 6 Xposition Yposition Zposition Zrotation Xrotation Yrotation
  JOINT RightUpLeg
  {
    OFFSET -9.3265 -1.55415 -0.0171091
    CHANNELS 3 Zrotation Xrotation Yrotation
    JOINT RightLeg
    {
      OFFSET -0.125794 -41.9436 0.102806
      CHANNELS 3 Zrotation Xrotation Yrotation
      JOINT RightFoot
      {
        OFFSET 0.138078 -41.9242 -0.0943422
        CHANNELS 3 Zrotation Xrotation Yrotation
        End Site
        {
          OFFSET 0 -7.69 17.5
        }
      }
    }
  }
  JOINT LeftUpLeg
  {
    OFFSET 9.28582 -1.60229 0.0178458
    CHANNELS 3 Zrotation Xrotation Yrotation
    JOINT LeftLeg
    {
      OFFSET 0.0590337 -41.8766 -0.103282
      CHANNELS 3 Zrotation Xrotation Yrotation
      JOINT LeftFoot
      {
        OFFSET 0.248671 -41.7745 -0.0391384
        CHANNELS 3 Zrotation Xrotation Yrotation
        End Site
        {
          OFFSET 0 -7.69 17.5
        }
      }
    }
  }
  JOINT Spine
  {
    OFFSET -0.044887 14.3054 -0.0836407
    CHANNELS 3 Zrotation Xrotation Yrotation
    JOINT Spine1
    {
      OFFSET 0.0890578 9.73457 0.0464976
      CHANNELS 3 Zrotation Xrotation Yrotation
      JOINT Spine2
      {
        OFFSET 0.0386025 10.1212 0.0337459
        CHANNELS 3 Zrotation Xrotation Yrotation
        JOINT Spine3
        {
          OFFSET -0.00444228 9.71785 0.0146977
          CHANNELS 3 Zrotation Xrotation Yrotation
          JOINT Neck
          {
            OFFSET -0.081693 10.3751 -0.0991895
            CHANNELS 3 Zrotation Xrotation Yrotation
            JOINT Head
            {
              OFFSET -0.100406 9.44362 -0.10879
              CHANNELS 3 Zrotation Xrotation Yrotation
              End Site
              {
                OFFSET 0 15.95 0
              }
            }
          }
          JOINT RightShoulder
          {
            OFFSET -3.20936 6.89625 0.0391654
            CHANNELS 3 Zrotation Xrotation Yrotation
            JOINT RightArm
            {
              OFFSET -12.8143 -0.0185143 0.0368862
              CHANNELS 3 Zrotation Xrotation Yrotation
              JOINT RightForeArm
              {
                OFFSET -26.448 -0.0861582 0.150351
                CHANNELS 3 Zrotation Xrotation Yrotation
                JOINT RightHand
                {
                  OFFSET -26.1022 0.0738218 0.00174904
                  CHANNELS 3 Zrotation Xrotation Yrotation
                  JOINT RightHandThumb1
                  {
                    OFFSET -2.48905 0.190105 3.12053
                    CHANNELS 3 Zrotation Xrotation Yrotation
                    JOINT RightHandThumb2
                    {
                      OFFSET -3.68274 0 0
                      CHANNELS 3 Zrotation Xrotation Yrotation
                      JOINT RightHandThumb3
                      {
                        OFFSET -2.55832 0 0
                        CHANNELS 3 Zrotation Xrotation Yrotation
                        End Site
                        {
                          OFFSET -2.194 0 0
                        }
                      }
                    }
                  }
                  JOINT RightInHandIndex
                  {
                    OFFSET -3.22368 0.508421 1.97842
                    CHANNELS 3 Zrotation Xrotation Yrotation
                    JOINT RightHandIndex1
                    {
                      OFFSET -5.21684 -0.091368 0.999158
                      CHANNELS 3 Zrotation Xrotation Yrotation
                      JOINT RightHandIndex2
                      {
                        OFFSET -3.61937 0 0
                        CHANNELS 3 Zrotation Xrotation Yrotation
                        JOINT RightHandIndex3
                        {
                          OFFSET -2.0521 0 0
                          CHANNELS 3 Zrotation Xrotation Yrotation
                          End Site
                          {
                            OFFSET -1.805 0 0
                          }
                        }
                      }
                    }
                  }
                  JOINT RightInHandMiddle
                  {
                    OFFSET -3.38211 0.517263 0.756737
                    CHANNELS 3 Zrotation Xrotation Yrotation
                    JOINT RightHandMiddle1
                    {
                      OFFSET -5.17411 -0.084 0.313895
                      CHANNELS 3 Zrotation Xrotation Yrotation
                      JOINT RightHandMiddle2
                      {
                        OFFSET -3.94947 0 0
                        CHANNELS 3 Zrotation Xrotation Yrotation
                        JOINT RightHandMiddle3
                        {
                          OFFSET -2.47579 0 0
                          CHANNELS 3 Zrotation Xrotation Yrotation
                          End Site
                          {
                            OFFSET -1.975 0 0
                          }
                        }
                      }
                    }
                  }
                  JOINT RightInHandRing
                  {
                    OFFSET -3.36516 0.537895 -0.128947
                    CHANNELS 3 Zrotation Xrotation Yrotation
                    JOINT RightHandRing1
                    {
                      OFFSET -4.63474 -0.022105 -0.478947
                      CHANNELS 3 Zrotation Xrotation Yrotation
                      JOINT RightHandRing2
                      {
                        OFFSET -3.44238 0 0
                        CHANNELS 3 Zrotation Xrotation Yrotation
                        JOINT RightHandRing3
                        {
                          OFFSET -2.3881 0 0
                          CHANNELS 3 Zrotation Xrotation Yrotation
                          End Site
                          {
                            OFFSET -1.857 0 0
                          }
                        }
                      }
                    }
                  }
                  JOINT RightInHandPinky
                  {
                    OFFSET -3.16105 0.469368 -1.20179
                    CHANNELS 3 Zrotation Xrotation Yrotation
                    JOINT RightHandPinky1
                    {
                      OFFSET -4.14105 -0.022105 -1.09053
                      CHANNELS 3 Zrotation Xrotation Yrotation
                      JOINT RightHandPinky2
                      {
                        OFFSET -2.75653 0 0
                        CHANNELS 3 Zrotation Xrotation Yrotation
                        JOINT RightHandPinky3
                        {
                          OFFSET -1.74189 0 0
                          CHANNELS 3 Zrotation Xrotation Yrotation
                          End Site
                          {
                            OFFSET -1.645 0 0
                          }
                        }
                      }
                    }
                  }
                }
              }
            }
          }
          JOINT LeftShoulder
          {
            OFFSET 3.12525 6.87903 -0.0170199
            CHANNELS 3 Zrotation Xrotation Yrotation
            JOINT LeftArm
            {
              OFFSET 12.7772 -0.0469204 -0.027264
              CHANNELS 3 Zrotation Xrotation Yrotation
              JOINT LeftForeArm
              {
                OFFSET 26.4794 -0.0637346 -0.0610438
                CHANNELS 3 Zrotation Xrotation Yrotation
                JOINT LeftHand
                {
                  OFFSET 26.0019 0.0490151 0.0404079
                  CHANNELS 3 Zrotation Xrotation Yrotation
                  JOINT LeftHandThumb1
                  {
                    OFFSET 2.48905 0.190105 3.12053
                    CHANNELS 3 Zrotation Xrotation Yrotation
                    JOINT LeftHandThumb2
                    {
                      OFFSET 3.68274 0 0
                      CHANNELS 3 Zrotation Xrotation Yrotation
                      JOINT LeftHandThumb3
                      {
                        OFFSET 2.55832 0 0
                        CHANNELS 3 Zrotation Xrotation Yrotation
                        End Site
                        {
                          OFFSET 2.194 0 0
                        }
                      }
                    }
                  }
                  JOINT LeftInHandIndex
                  {
                    OFFSET 3.22368 0.508421 1.97842
                    CHANNELS 3 Zrotation Xrotation Yrotation
                    JOINT LeftHandIndex1
                    {
                      OFFSET 5.21684 -0.091368 0.999158
                      CHANNELS 3 Zrotation Xrotation Yrotation
                      JOINT LeftHandIndex2
                      {
                        OFFSET 3.61937 0 0
                        CHANNELS 3 Zrotation Xrotation Yrotation
                        JOINT LeftHandIndex3
                        {
                          OFFSET 2.0521 0 0
                          CHANNELS 3 Zrotation Xrotation Yrotation
                          End Site
                          {
                            OFFSET 1.805 0 0
                          }
                        }
                      }
                    }
                  }
                  JOINT LeftInHandMiddle
                  {
                    OFFSET 3.38211 0.517263 0.756737
                    CHANNELS 3 Zrotation Xrotation Yrotation
                    JOINT LeftHandMiddle1
                    {
                      OFFSET 5.17411 -0.084 0.313895
                      CHANNELS 3 Zrotation Xrotation Yrotation
                      JOINT LeftHandMiddle2
                      {
                        OFFSET 3.94947 0 0
                        CHANNELS 3 Zrotation Xrotation Yrotation
                        JOINT LeftHandMiddle3
                        {
                          OFFSET 2.47579 0 0
                          CHANNELS 3 Zrotation Xrotation Yrotation
                          End Site
                          {
                            OFFSET 1.975 0 0
                          }
                        }
                      }
                    }
                  }
                  JOINT LeftInHandRing
                  {
                    OFFSET 3.36516 0.537895 -0.128947
                    CHANNELS 3 Zrotation Xrotation Yrotation
                    JOINT LeftHandRing1
                    {
                      OFFSET 4.63474 -0.022105 -0.478947
                      CHANNELS 3 Zrotation Xrotation Yrotation
                      JOINT LeftHandRing2
                      {
                        OFFSET 3.44238 0 0
                        CHANNELS 3 Zrotation Xrotation Yrotation
                        JOINT LeftHandRing3
                        {
                          OFFSET 2.3881 0 0
                          CHANNELS 3 Zrotation Xrotation Yrotation
                          End Site
                          {
                            OFFSET 1.857 0 0
                          }
                        }
                      }
                    }
                  }
                  JOINT LeftInHandPinky
                  {
                    OFFSET 3.16105 0.469368 -1.20179
                    CHANNELS 3 Zrotation Xrotation Yrotation
                    JOINT LeftHandPinky1
                    {
                      OFFSET 4.14105 -0.022105 -1.09053
                      CHANNELS 3 Zrotation Xrotation Yrotation
                      JOINT LeftHandPinky2
                      {
                        OFFSET 2.75653 0 0
                        CHANNELS 3 Zrotation Xrotation Yrotation
                        JOINT LeftHandPinky3
                        {
                          OFFSET 1.74189 0 0
                          CHANNELS 3 Zrotation Xrotation Yrotation
                          End Site
                          {
                            OFFSET 1.645 0 0
                          }
                        }
                      }
                    }
                  }
                }
              }
            }
          }
        }
      }
    }
  }
}
MOTION
Frames:	7
Frame Time:	0.00833333
-825.001 91.5006 -270.012 -0.202997 -13.4485 -176.078 -15.1274 -32.2561 0.981563 17.8287 19.6605 -7.3454 -2.64041 -2.34476 6.98597 25.8987 -26.1438 -9.97453 -22.0136 34.8239 39.0417 -6.12739 -1.79654 14.424 10.3874 15.0906 -35.7265 1.8197 5.44794 -9.21173 3.32048 9.2536 -13.8631 -0.679367 -0.804234 2.49092 -3.37645 -3.05929 24.7134 -10.5016 -6.16614 31.1175 -2.26092 -16.6388 14.1353 60.5388 -10.1518 14.8033 43.5994 -9.65596 103.812 57.8718 -40.852 -0.405022 28.184 10.7294 19.1592 -1.13713e-14 -9.54166e-15 -10 1.40204e-16 7.95139e-16 -10 -1.59028e-15 -2.98177e-15 7.95139e-16 19.9818 0.871897 2.3964 24 -3.97569e-15 -2.0276e-14 20 1.98785e-15 -2.24627e-14 -1.59028e-15 -2.98177e-15 7.95139e-16 20 -1.03368e-14 -3.10104e-14 24 -1.19271e-14 -2.10712e-14 20 1.59028e-15 -2.18663e-14 -1.59028e-15 -2.98177e-15 7.95139e-16 19.9748 -1.02565 -2.81938 24 0 -2.3059e-14 20 -7.95139e-15 -9.14409e-15 -1.59028e-15 -2.98177e-15 7.95139e-16 19.7815 -3.00948 -8.30515 24 -1.59028e-15 -7.95139e-15 20 -1.59028e-15 -2.38542e-15 2.0279 -13.405 17.5205 -14.9514 40.6032 -112.918 -16.2944 -2.09327 -61.532 7.29378 -14.3947 -3.27653 -28.184 10.7294 -19.1592 -1.29185e-14 0 10 4.49638e-15 1.11319e-14 10 -1.32417e-31 -9.54166e-15 -7.95139e-16 -19.9818 0.871897 -2.3964 -24 -1.59028e-15 6.36111e-15 -20 1.78906e-15 9.54166e-15 -1.32417e-31 -9.54166e-15 -7.95139e-16 -20 1.59028e-15 4.77083e-15 -24 -7.95139e-16 6.36111e-15 -20 -4.57205e-15 1.27222e-14 -1.32417e-31 -9.54166e-15 -7.95139e-16 -19.9748 -1.02565 2.81938 -24 0 3.18055e-15 -20 -5.96354e-16 1.59028e-14 -1.32417e-31 -9.54166e-15 -7.95139e-16 -19.7815 -3.00948 8.30515 -24 0 6.36111e-15 -20 -2.68359e-15 1.74931e-14 
-825.272 91.3624 -269.678 -0.0767725 -13.6209 -175.546 -15.7825 -32.6115 0.702745 18.3678 19.7819 -7.95038 -2.65702 -2.34382 6.84503 26.5415 -26.0654 -9.61159 -21.8573 34.418 39.0698 -5.6699 -1.05392 14.6795 10.5312 15.1956 -35.6897 1.85076 5.48512 -9.19439 3.36576 9.30661 -13.8418 -0.679191 -0.811761 2.48386 -3.35704 -3.01376 24.2632 -10.4485 -6.44011 31.2563 -2.49909 -16.7569 13.9772 60.7436 -9.52416 14.8928 43.8391 -10.247 102.983 57.796 -39.1086 -1.54818 28.184 10.7294 19.1592 6.45924e-15 0 -10 3.36982e-15 7.95139e-16 -10 1.59028e-15 -1.98785e-16 -0 19.9818 0.871897 2.3964 24 -7.95139e-16 1.47101e-14 20 0 1.0138e-14 1.59028e-15 -1.98785e-16 -0 20 1.43125e-14 3.4191e-14 24 -7.95139e-16 1.90833e-14 20 3.18055e-15 2.78299e-15 1.59028e-15 -1.98785e-16 -0 19.9748 -1.02565 -2.81938 24 1.11319e-14 1.59028e-14 20 1.59028e-15 1.15295e-14 1.59028e-15 -1.98785e-16 -0 19.7815 -3.00948 -8.30515 24 0 1.90833e-14 20 -3.18055e-15 -3.97569e-15 1.90897 -13.3281 17.425 -15.6578 41.0374 -112.414 -16.2593 -1.06475 -61.281 8.27737 -15.1884 -2.70569 -28.184 10.7294 -19.1592 3.79044e-15 -3.18055e-15 10 -3.51003e-15 1.59028e-15 10 0 0 -3.18055e-15 -19.9818 0.871897 -2.3964 -24 -4.77083e-15 -6.36111e-15 -20 0 -1.27222e-14 0 0 -3.18055e-15 -20 1.59028e-15 -4.77083e-15 -24 1.59028e-15 -3.18055e-15 -20 2.18663e-15 -6.36111e-15 0 0 -3.18055e-15 -19.9748 -1.02565 2.81938 -24 -7.95139e-16 -0 -20 7.95139e-16 -9.54166e-15 0 0 -3.18055e-15 -19.7815 -3.00948 8.30515 -24 1.59028e-15 4.77083e-15 -20 -9.93923e-16 -3.18055e-15 
-825.535 91.2236 -269.339 0.0716073 -13.7748 -174.98 -16.4583 -32.927 0.420966 18.9345 19.8717 -8.60946 -2.68291 -2.35842 6.72065 27.1894 -25.9998 -9.30188 -21.9002 34.0558 39.2612 -5.097 -0.345758 15.0099 10.6899 15.3146 -35.6343 1.88488 5.52619 -9.16989 3.41534 9.36493 -13.8109 -0.678916 -0.821321 2.47602 -3.34279 -2.97125 23.7968 -10.4096 -6.74431 31.3901 -2.77102 -16.8802 13.7565 60.9894 -8.86717 14.9685 44.0914 -10.8221 102.124 57.6894 -37.2825 -2.7249 28.184 10.7294 19.1592 1.02497e-14 3.18055e-15 -10 -2.94921e-15 1.59028e-15 -10 3.18055e-15 7.15625e-15 -0 19.9818 0.871897 2.3964 24 2.38542e-15 4.77083e-14 20 4.77083e-15 2.46493e-14 3.18055e-15 7.15625e-15 -0 20 9.54166e-15 5.40694e-14 24 7.95139e-15 3.4191e-14 20 7.95139e-15 1.55052e-14 3.18055e-15 7.15625e-15 -0 19.9748 -1.02565 -2.81938 24 7.95139e-15 3.02153e-14 20 3.18055e-15 2.38542e-14 3.18055e-15 7.15625e-15 -0 19.7815 -3.00948 -8.30515 24 7.95139e-15 1.90833e-14 20 3.18055e-15 2.3059e-14 1.78937 -13.2296 17.2965 -16.394 41.4504 -111.887 -16.9578 -0.954089 -60.62 7.49632 -13.8947 -3.42161 -28.184 10.7294 -19.1592 -0 0 10 -1.1236e-14 -9.54166e-15 10 3.08973e-31 -3.18055e-15 5.56597e-15 -19.9818 0.871897 -2.3964 -24 4.77083e-15 -2.22639e-14 -20 5.36719e-15 -4.13472e-14 3.08973e-31 -3.18055e-15 5.56597e-15 -20 1.59028e-15 -1.11319e-14 -24 4.77083e-15 -2.54444e-14 -20 3.77691e-15 -4.13472e-14 3.08973e-31 -3.18055e-15 5.56597e-15 -19.9748 -1.02565 2.81938 -24 5.56597e-15 -3.18055e-14 -20 3.77691e-15 -2.8625e-14 3.08973e-31 -3.18055e-15 5.56597e-15 -19.7815 -3.00948 8.30515 -24 8.74653e-15 -3.18055e-14 -20 6.75868e-15 -4.13472e-14 
-825.795 91.0822 -268.988 0.241678 -13.9164 -174.383 -17.1245 -33.2169 0.142889 19.4978 19.9434 -9.27611 -2.70505 -2.36861 6.58401 27.8144 -25.9816 -8.99814 -21.9624 33.7279 39.4624 -4.52045 0.385538 15.4707 10.8597 15.4385 -35.5584 1.9217 5.56822 -9.1378 3.46849 9.42407 -13.7695 -0.678703 -0.829223 2.46692 -3.3222 -2.91865 23.2769 -10.3704 -7.04104 31.5411 -3.06094 -17.0174 13.4984 61.2431 -8.19609 15.0171 44.3722 -11.3947 101.201 57.5625 -35.3644 -3.93282 28.184 10.7294 19.1592 5.61801e-15 -4.77083e-15 -10 -5.89842e-15 3.18055e-15 -10 3.18055e-15 -7.95139e-16 1.59028e-15 19.9818 0.871897 2.3964 24 -7.15625e-15 2.46493e-14 20 0 7.15625e-15 3.18055e-15 -7.95139e-16 1.59028e-15 20 7.95139e-16 2.38542e-14 24 1.59028e-15 1.59028e-14 20 3.18055e-15 7.95139e-15 3.18055e-15 -7.95139e-16 1.59028e-15 19.9748 -1.02565 -2.81938 24 4.77083e-15 2.06736e-14 20 1.59028e-15 1.19271e-14 3.18055e-15 -7.95139e-16 1.59028e-15 19.7815 -3.00948 -8.30515 24 9.54166e-15 1.59028e-14 20 9.54166e-15 1.43125e-14 1.64138 -13.1351 17.1129 -17.1518 41.8537 -111.306 -17.8175 -1.04554 -59.8384 6.34761 -12.126 -4.40626 -28.184 10.7294 -19.1592 5.60818e-16 -3.18055e-15 10 -5.3376e-15 -6.36111e-15 10 3.18055e-15 -3.18055e-15 7.95139e-16 -19.9818 0.871897 -2.3964 -24 1.59028e-15 -6.36111e-15 -20 -3.18055e-15 -6.36111e-15 3.18055e-15 -3.18055e-15 7.95139e-16 -20 3.18055e-15 -1.59028e-15 -24 0 -9.54166e-15 -20 -5.96354e-16 -9.54166e-15 3.18055e-15 -3.18055e-15 7.95139e-16 -19.9748 -1.02565 2.81938 -24 -1.59028e-15 -3.18055e-15 -20 -2.78299e-15 -6.36111e-15 3.18055e-15 -3.18055e-15 7.95139e-16 -19.7815 -3.00948 8.30515 -24 2.38542e-15 -1.43125e-14 -20 8.94531e-16 -6.36111e-15 
-826.05 90.9366 -268.625 0.43488 -14.0423 -173.754 -17.7625 -33.4793 -0.12014 20.0557 20.0049 -9.93111 -2.72576 -2.3661 6.41774 28.4049 -26.0282 -8.70206 -21.9636 33.4228 39.6055 -4.00931 1.17288 16.1287 11.0422 15.5676 -35.4613 1.96157 5.61135 -9.09767 3.52574 9.48418 -13.717 -0.678033 -0.833799 2.45641 -3.29086 -2.84997 22.6927 -10.3299 -7.31033 31.7163 -3.36553 -17.1706 13.2085 61.4901 -7.51301 15.0324 44.6925 -11.9526 100.206 57.4337 -33.3547 -5.16759 28.184 10.7294 19.1592 2.10798e-15 -6.36111e-15 -10 9.39969e-15 -1.63997e-15 -10 -3.18055e-15 3.18055e-15 3.18055e-15 19.9818 0.871897 2.3964 24 -3.18055e-15 3.18055e-14 20 -3.18055e-15 9.54166e-15 -3.18055e-15 3.18055e-15 3.18055e-15 20 1.35174e-14 4.77083e-14 24 9.54166e-15 3.49861e-14 20 0 2.06736e-14 -3.18055e-15 3.18055e-15 3.18055e-15 19.9748 -1.02565 -2.81938 24 1.27222e-14 3.02153e-14 20 3.18055e-15 2.14687e-14 -3.18055e-15 3.18055e-15 3.18055e-15 19.7815 -3.00948 -8.30515 24 6.36111e-15 3.02153e-14 20 0 8.74653e-15 1.43882 -13.0616 16.8418 -17.906 42.2339 -110.658 -18.3414 -0.625267 -59.3099 5.09373 -10.3656 -5.34006 -28.184 10.7294 -19.1592 -5.60818e-16 3.18055e-15 10 -1.05301e-14 4.77083e-15 10 -3.18055e-15 3.18055e-15 7.95139e-16 -19.9818 0.871897 -2.3964 -24 -3.18055e-15 -6.36111e-15 -20 3.57812e-15 -3.18055e-15 -3.18055e-15 3.18055e-15 7.95139e-16 -20 3.18055e-15 -9.54166e-15 -24 4.77083e-15 -6.36111e-15 -20 2.78299e-15 -6.36111e-15 -3.18055e-15 3.18055e-15 7.95139e-16 -19.9748 -1.02565 2.81938 -24 -7.95139e-16 -6.36111e-15 -20 2.88238e-15 -9.54166e-15 -3.18055e-15 3.18055e-15 7.95139e-16 -19.7815 -3.00948 8.30515 -24 7.95139e-16 -6.36111e-15 -20 2.03754e-15 -1.27222e-14 
-826.306 90.7914 -268.24 0.647943 -14.172 -173.099 -18.3847 -33.7367 -0.390778 20.5671 20.0436 -10.5758 -2.71478 -2.35138 6.24863 28.9677 -26.1332 -8.33763 -21.9321 33.1618 39.7197 -3.54731 1.95563 16.8555 11.2284 15.6889 -35.3366 2.00314 5.65074 -9.04839 3.58487 9.53791 -13.6518 -0.675777 -0.834567 2.44395 -3.24219 -2.7617 22.0124 -10.27 -7.55715 31.9282 -3.67715 -17.3462 12.8972 61.7351 -6.83952 15.011 45.0333 -12.5041 99.0938 57.2884 -31.238 -6.43737 28.184 10.7294 19.1592 3.93064e-15 3.97569e-15 -10 5.22753e-15 1.13307e-14 -10 6.36111e-15 -6.75868e-15 3.18055e-15 19.9818 0.871897 2.3964 24 1.59028e-15 1.59028e-15 20 -1.59028e-15 6.36111e-15 6.36111e-15 -6.75868e-15 3.18055e-15 20 0 2.54444e-14 24 4.77083e-15 1.11319e-14 20 3.18055e-15 3.97569e-15 6.36111e-15 -6.75868e-15 3.18055e-15 19.9748 -1.02565 -2.81938 24 0 1.59028e-14 20 -3.18055e-15 8.74653e-15 6.36111e-15 -6.75868e-15 3.18055e-15 19.7815 -3.00948 -8.30515 24 6.36111e-15 7.95139e-15 20 0 6.36111e-15 1.21881 -12.9945 16.5436 -18.7161 42.6306 -109.93 -19.5187 -1.22795 -58.1435 4.63906 -9.15495 -5.98892 -28.184 10.7294 -19.1592 -6.45924e-15 0 10 -1.53069e-14 -4.77083e-15 10 3.18055e-15 -3.18055e-15 -3.18055e-15 -19.9818 0.871897 -2.3964 -24 3.18055e-15 -9.54166e-15 -20 2.98177e-15 -1.90833e-14 3.18055e-15 -3.18055e-15 -3.18055e-15 -20 4.77083e-15 -7.95139e-15 -24 3.18055e-15 -1.59028e-14 -20 7.95139e-16 -2.22639e-14 3.18055e-15 -3.18055e-15 -3.18055e-15 -19.9748 -1.02565 2.81938 -24 3.18055e-15 -2.22639e-14 -20 0 -9.54166e-15 3.18055e-15 -3.18055e-15 -3.18055e-15 -19.7815 -3.00948 8.30515 -24 2.38542e-15 -1.74931e-14 -20 2.88238e-15 -1.59028e-14 
-826.564 90.6497 -267.823 0.881072 -14.3226 -172.422 -18.9888 -34.0141 -0.685398 20.9863 20.0559 -11.2104 -2.64133 -2.32063 6.10518 29.5016 -26.2961 -7.84169 -21.8567 32.9607 39.7956 -3.13326 2.70153 17.616 11.4127 15.7917 -35.1759 2.04577 5.68247 -8.98797 3.6447 9.57925 -13.5714 -0.671529 -0.829727 2.42904 -3.16735 -2.64533 21.2018 -10.1784 -7.76787 32.1936 -3.98838 -17.5549 12.5694 61.9761 -6.19934 14.946 45.3882 -13.0112 97.8112 57.137 -29.0158 -7.74984 28.184 10.7294 19.1592 4.90715e-16 2.78299e-15 -10 2.6688e-15 -3.18055e-15 -10 -1.59028e-15 7.95139e-15 3.18055e-15 19.9818 0.871897 2.3964 24 6.36111e-15 -1.11319e-14 20 3.18055e-15 3.18055e-15 -1.59028e-15 7.95139e-15 3.18055e-15 20 7.95139e-15 7.95139e-15 24 -1.59028e-15 -3.18055e-15 20 -3.18055e-15 -0 -1.59028e-15 7.95139e-15 3.18055e-15 19.9748 -1.02565 -2.81938 24 3.18055e-15 -7.95139e-15 20 -9.54166e-15 -1.59028e-15 -1.59028e-15 7.95139e-15 3.18055e-15 19.7815 -3.00948 -8.30515 24 0 -0 20 -3.18055e-15 -3.18055e-15 0.997693 -12.9321 16.2469 -19.6182 43.0641 -109.108 -22.2151 -4.90564 -55.5638 6.12774 -9.25572 -5.96327 -28.184 10.7294 -19.1592 -0 0 10 1.54717e-15 9.54166e-15 10 3.18055e-15 0 -2.38542e-15 -19.9818 0.871897 -2.3964 -24 -1.59028e-15 6.36111e-15 -20 -3.97569e-15 3.18055e-15 3.18055e-15 0 -2.38542e-15 -20 0 9.54166e-15 -24 -3.18055e-15 1.27222e-14 -20 3.97569e-16 -0 3.18055e-15 0 -2.38542e-15 -19.9748 -1.02565 2.81938 -24 -1.59028e-15 9.54166e-15 -20 -7.95139e-16 1.90833e-14 3.18055e-15 0 -2.38542e-15 -19.7815 -3.00948 8.30515 -24 0 1.27222e-14 -20 -2.38542e-15 9.54166e-15 
